<svg width="80" height="80" viewBox="0 0 80 80" fill="none" xmlns="http://www.w3.org/2000/svg">
<path d="M56.6667 60H23.3333V20H56.6667V23.3333H63.3333V9.99998C63.3333 6.33331 60.3333 3.33331 56.6667 3.33331H23.3333C19.6667 3.33331 16.6667 6.33331 16.6667 9.99998V70C16.6667 73.6666 19.6667 76.6666 23.3333 76.6666H56.6667C60.3333 76.6666 63.3333 73.6666 63.3333 70V56.6666H56.6667V60ZM67.9333 32.0666L70 36.6666L72.0667 32.0666L76.6667 30L72.0667 27.9333L70 23.3333L67.9333 27.9333L63.3333 30L67.9333 32.0666Z" fill="#FFF"/>
<path d="M53.3333 26.6667L49.1667 35.8334L40 40L49.1667 44.1667L53.3333 53.3334L57.5 44.1667L66.6667 40L57.5 35.8334L53.3333 26.6667ZM70 43.3334L67.9333 47.9334L63.3333 50L67.9333 52.0667L70 56.6667L72.0667 52.0667L76.6667 50L72.0667 47.9334L70 43.3334Z" fill="#FFF"/>
</svg>
