<svg width="80" height="80" viewBox="0 0 80 80" fill="none" xmlns="http://www.w3.org/2000/svg">
<path d="M37.5 17.5C34.7 17.5 32.085 18.265 29.85 19.6C29.6091 17.0359 28.7884 14.5602 27.45 12.36C30.6916 10.7411 34.2761 9.92893 37.8989 9.99267C41.5217 10.0564 45.0755 10.9941 48.2581 12.7261C51.4407 14.458 54.1579 16.9329 56.1787 19.9404C58.1995 22.9479 59.4642 26.3989 59.865 30H66.255C71.085 30 75.005 33.92 75.005 38.75V61.25C75.005 62.3995 74.7785 63.5377 74.3385 64.5996C73.8984 65.6615 73.2535 66.6264 72.4404 67.4389C71.6274 68.2515 70.6622 68.8959 69.6 69.3354C68.5379 69.7748 67.3995 70.0006 66.25 70H43.75C41.4294 70 39.2038 69.0781 37.5628 67.4372C35.9219 65.7962 35 63.5706 35 61.25V54.865C33.2667 54.6727 31.5617 54.2783 29.92 53.69C29.97 52.51 30 51.28 30 50V49.6C30 48.4 30 46.985 29.95 45.465C31.5082 46.3776 33.2194 46.9994 35 47.3V38.75C35 33.92 38.92 30 43.75 30H52.295C51.7041 26.5039 49.8938 23.3303 47.1854 21.042C44.477 18.7537 41.0456 17.4988 37.5 17.5V17.5ZM59.445 37.5C58.5002 41.6322 56.409 45.4142 53.4116 48.4116C50.4143 51.4089 46.6323 53.5001 42.5 54.445V61.25C42.5 61.94 43.06 62.5 43.75 62.5H66.25C66.5815 62.5 66.8995 62.3683 67.1339 62.1339C67.3683 61.8994 67.5 61.5815 67.5 61.25V38.75C67.5 38.4185 67.3683 38.1005 67.1339 37.8661C66.8995 37.6317 66.5815 37.5 66.25 37.5H59.445ZM51.645 37.5H43.75C43.4185 37.5 43.1005 37.6317 42.8661 37.8661C42.6317 38.1005 42.5 38.4185 42.5 38.75V46.65C44.61 45.9019 46.5264 44.6923 48.1094 43.1093C49.6923 41.5264 50.902 39.61 51.65 37.5H51.645ZM17.905 5.62498C18.32 5.98799 18.6034 6.47802 18.711 7.01879C18.8186 7.55957 18.7444 8.12075 18.5 8.61498C18.4577 8.76126 18.4358 8.9127 18.435 9.06498C18.435 9.37998 18.515 9.97998 19.27 10.73C19.635 11.095 19.915 11.355 20.22 11.64C20.47 11.87 20.735 12.11 21.07 12.44C21.72 13.06 22.405 13.79 23.02 14.705C24.295 16.62 25 19.015 25 22.5C25 26.66 23.5 30.215 21.14 32.46C22.6 33.94 23.45 35.875 23.975 37.81C25 41.57 25 46.22 25 49.815V50C25 60.29 23.075 66.4 20.895 70.035C20.0714 71.4663 18.9899 72.7327 17.705 73.77C17.1961 74.1669 16.6423 74.5025 16.055 74.77C16.055 74.77 15.42 75 15 75C14.6396 74.9714 14.2847 74.894 13.945 74.77C13.3577 74.5025 12.8039 74.1669 12.295 73.77C11.0101 72.7327 9.92855 71.4663 9.105 70.035C6.925 66.405 5 60.29 5 50V49.82C5 46.22 5 41.575 6.025 37.805C6.55 35.875 7.4 33.94 8.86 32.455C6.5 30.22 5 26.66 5 22.5C5 20.87 5.435 18.925 6.035 17.13C6.635 15.33 7.475 13.47 8.445 11.97C9.6 10.02 11.225 8.38498 12.485 7.28498C13.1758 6.67746 13.8967 6.10507 14.645 5.56998L14.795 5.46998L14.84 5.43498L14.855 5.42498L14.865 5.41998C15.3235 5.11437 15.8701 4.96878 16.4198 5.00585C16.9696 5.04292 17.4917 5.26058 17.905 5.62498V5.62498Z" fill="#FFF"/>
</svg>
