<svg width="80" height="80" viewBox="0 0 80 80" fill="none" xmlns="http://www.w3.org/2000/svg">
<path d="M47.2333 45.7L51.9 37.6333C52.2 37.1333 52.0667 36.5 51.6333 36.1333L46.7 32.2667C46.8 31.5333 46.8667 30.7667 46.8667 30C46.8667 29.2333 46.8 28.4667 46.7 27.7L51.6333 23.8333C52.0667 23.4667 52.2 22.8333 51.9 22.3333L47.2333 14.2667C46.9333 13.7667 46.3333 13.5667 45.8 13.7667L40 16.1C38.8 15.1667 37.5 14.4 36.0667 13.8L35.2 7.63334C35.1441 7.36375 34.9981 7.12119 34.7861 6.94552C34.5741 6.76986 34.3086 6.67152 34.0333 6.66667H24.7C24.1333 6.66667 23.6333 7.1 23.5333 7.66667L22.6667 13.8333C21.2667 14.4333 19.9333 15.2 18.7333 16.1333L12.9333 13.8C12.4 13.6 11.8 13.8 11.5 14.3L6.83333 22.3667C6.53333 22.8667 6.66667 23.5 7.1 23.8667L12.0333 27.7333C11.9333 28.4667 11.8667 29.2333 11.8667 30C11.8667 30.7667 11.9333 31.5333 12.0333 32.3L7.1 36.1667C6.66667 36.5333 6.53333 37.1667 6.83333 37.6667L11.5 45.7333C11.8 46.2333 12.4 46.4333 12.9333 46.2333L18.7333 43.9C19.9333 44.8333 21.2333 45.6 22.6667 46.2L23.5333 52.3667C23.6333 52.9 24.1333 53.3333 24.7 53.3333H34.0333C34.6 53.3333 35.1 52.9 35.2 52.3333L36.0667 46.1667C37.4667 45.5667 38.8 44.8 40 43.8667L45.8 46.2C46.3333 46.4 46.9333 46.2 47.2333 45.7V45.7ZM29.3667 36.6667C25.7 36.6667 22.7 33.6667 22.7 30C22.7 26.3333 25.7 23.3333 29.3667 23.3333C33.0333 23.3333 36.0333 26.3333 36.0333 30C36.0333 33.6667 33.0333 36.6667 29.3667 36.6667ZM73.0667 62.2333L69.8667 59.7667C69.9333 59.3 70 58.8 70 58.3C70 57.8 69.9667 57.3 69.8667 56.8333L73.0333 54.3667C73.3 54.1333 73.4 53.7333 73.2 53.4L70.2 48.2333C70.0333 47.9 69.6333 47.8 69.2667 47.9L65.5667 49.4C64.8 48.8 63.9667 48.3 63.0333 47.9333L62.4667 44C62.4535 43.8218 62.3746 43.6549 62.2452 43.5317C62.1158 43.4085 61.9453 43.3378 61.7667 43.3333H55.8C55.4333 43.3333 55.1 43.6 55.0667 43.9667L54.5 47.9C53.6 48.3 52.7333 48.7667 51.9667 49.3667L48.2667 47.8667C48.0968 47.8028 47.9098 47.8012 47.7389 47.8623C47.568 47.9233 47.4243 48.043 47.3333 48.2L44.3333 53.3667C44.1667 53.7 44.2 54.1 44.5 54.3333L47.6667 56.8C47.5292 57.773 47.5292 58.7604 47.6667 59.7333L44.5 62.2C44.2333 62.4333 44.1333 62.8333 44.3333 63.1667L47.3333 68.3333C47.5 68.6667 47.9 68.7667 48.2667 68.6667L51.9667 67.1667C52.7333 67.7667 53.5667 68.2667 54.5 68.6333L55.0667 72.5667C55.1333 72.9333 55.4333 73.2 55.8 73.2H61.7667C62.1333 73.2 62.4667 72.9333 62.5 72.5667L63.0667 68.6333C63.9667 68.2333 64.8333 67.7667 65.5667 67.1667L69.3 68.6667C69.6333 68.8 70.0333 68.6667 70.2333 68.3333L73.2333 63.1667C73.4333 62.8667 73.3333 62.4667 73.0667 62.2333V62.2333ZM58.7667 62.7667C57.5728 62.7662 56.4279 62.2915 55.584 61.447C54.7401 60.6024 54.2662 59.4573 54.2667 58.2633C54.2671 57.0694 54.7418 55.9246 55.5864 55.0807C56.4309 54.2368 57.5761 53.7629 58.77 53.7633C59.9639 53.7638 61.1088 54.2385 61.9527 55.083C62.7966 55.9276 63.2705 57.0728 63.27 58.2667C63.2696 59.4606 62.7949 60.6054 61.9503 61.4493C61.1058 62.2933 59.9606 62.7671 58.7667 62.7667V62.7667Z" fill="#FFF"/>
</svg>
