<svg width="80" height="80" viewBox="0 0 80 80" fill="none" xmlns="http://www.w3.org/2000/svg">
<path d="M40 35.5111C45.8419 35.5111 50.5778 30.835 50.5778 25.0667C50.5778 19.2984 45.8419 14.6222 40 14.6222C34.158 14.6222 29.4222 19.2984 29.4222 25.0667C29.4222 30.835 34.158 35.5111 40 35.5111Z" fill="#FFF"/>
<path d="M23.9556 26.1111H25.0222V25.1555C25.0287 22.3769 25.8126 19.6555 27.2853 17.2992C28.758 14.9428 30.8607 13.0457 33.3556 11.8222C32.617 10.1212 31.4315 8.65207 29.925 7.57074C28.4185 6.48942 26.6472 5.83631 24.7993 5.68079C22.9515 5.52528 21.096 5.87316 19.4299 6.68749C17.7639 7.50181 16.3495 8.75218 15.337 10.3058C14.3245 11.8594 13.7517 13.6582 13.6795 15.5112C13.6072 17.3642 14.0382 19.2022 14.9266 20.8299C15.815 22.4577 17.1277 23.8144 18.7253 24.756C20.3229 25.6976 22.1456 26.1889 24 26.1778L23.9556 26.1111ZM55.0222 25.0667V26.0222H56.0889C57.9186 26.0039 59.7095 25.4926 61.273 24.5422C62.8366 23.5918 64.1151 22.2375 64.9739 20.6218C65.8327 19.0061 66.24 17.1887 66.153 15.361C66.066 13.5333 65.4879 11.7629 64.4795 10.236C63.4711 8.70919 62.0698 7.48243 60.423 6.68488C58.7762 5.88733 56.9448 5.54848 55.1217 5.70401C53.2985 5.85953 51.551 6.50367 50.0631 7.56863C48.5752 8.63359 47.4019 10.08 46.6667 11.7556C49.1623 12.9742 51.2673 14.8666 52.7438 17.2188C54.2204 19.5711 55.0096 22.2894 55.0222 25.0667ZM49.5333 36.5556C53.9517 37.4301 58.2238 38.9265 62.2222 41C62.7855 41.3094 63.2957 41.7071 63.7333 42.1778H75.5555V34.5778C75.5577 34.2863 75.4802 33.9997 75.3314 33.7491C75.1825 33.4984 74.9681 33.2932 74.7111 33.1556C68.9514 30.1429 62.5444 28.5793 56.0444 28.6H54.5778C53.8076 31.7305 52.0364 34.5239 49.5333 36.5556V36.5556ZM14.5111 46.4889C14.507 45.3697 14.8093 44.2708 15.3851 43.3111C15.9609 42.3514 16.7884 41.5675 17.7778 41.0444C21.7762 38.9709 26.0483 37.4745 30.4667 36.6C27.9757 34.5856 26.2056 31.8174 25.4222 28.7111H23.9556C17.4556 28.6904 11.0485 30.254 5.28889 33.2667C5.03193 33.4043 4.81745 33.6095 4.66863 33.8602C4.51981 34.1108 4.44229 34.3974 4.44444 34.6889V48.8889H14.5111V46.4889ZM47.6889 59.3111H60.9333V62.4222H47.6889V59.3111Z" fill="#FFF"/>
<path d="M72.9111 47.2445H57.6444V45.0222C57.6444 44.4329 57.4103 43.8676 56.9936 43.4509C56.5768 43.0341 56.0116 42.8 55.4222 42.8C54.8328 42.8 54.2676 43.0341 53.8509 43.4509C53.4341 43.8676 53.2 44.4329 53.2 45.0222V47.2445H48.8889V40.9556C45.9652 40.3416 42.9874 40.0215 40 40C32.9861 39.9708 26.0725 41.6649 19.8667 44.9333C19.5902 45.0767 19.3589 45.2938 19.1981 45.5604C19.0373 45.8271 18.9533 46.1331 18.9555 46.4444V58.9111H34.7555V72.4445C34.7555 73.0338 34.9897 73.5991 35.4064 74.0158C35.8232 74.4325 36.3884 74.6667 36.9778 74.6667H72.9111C73.5005 74.6667 74.0657 74.4325 74.4824 74.0158C74.8992 73.5991 75.1333 73.0338 75.1333 72.4445V49.4667C75.1333 48.8773 74.8992 48.3121 74.4824 47.8953C74.0657 47.4786 73.5005 47.2445 72.9111 47.2445ZM70.6889 70.2667H39.2V51.6889H53.2V53.7111C53.2 54.3005 53.4341 54.8657 53.8509 55.2825C54.2676 55.6992 54.8328 55.9333 55.4222 55.9333C56.0116 55.9333 56.5768 55.6992 56.9936 55.2825C57.4103 54.8657 57.6444 54.3005 57.6444 53.7111V51.6889H70.6889V70.2667Z" fill="#FFF"/>
</svg>
