<svg width="80" height="80" viewBox="0 0 80 80" fill="none" xmlns="http://www.w3.org/2000/svg">
<path fill-rule="evenodd" clip-rule="evenodd" d="M46.6667 23.3333C45.7826 23.3333 44.9348 23.6845 44.3096 24.3096C43.6845 24.9347 43.3333 25.7826 43.3333 26.6666V53.3333C43.3333 54.2174 43.6845 55.0652 44.3096 55.6903C44.9348 56.3155 45.7826 56.6666 46.6667 56.6666H60C60.884 56.6666 61.7319 56.3155 62.357 55.6903C62.9821 55.0652 63.3333 54.2174 63.3333 53.3333V26.6666C63.3333 25.7826 62.9821 24.9347 62.357 24.3096C61.7319 23.6845 60.884 23.3333 60 23.3333H46.6667ZM56.6667 30H50V50H56.6667V30Z" fill="#FFF"/>
<path d="M20 23.3333C19.1159 23.3333 18.2681 23.6845 17.643 24.3096C17.0178 24.9347 16.6667 25.7826 16.6667 26.6666C16.6667 27.5507 17.0178 28.3985 17.643 29.0237C18.2681 29.6488 19.1159 30 20 30H33.3333C34.2174 30 35.0652 29.6488 35.6903 29.0237C36.3155 28.3985 36.6667 27.5507 36.6667 26.6666C36.6667 25.7826 36.3155 24.9347 35.6903 24.3096C35.0652 23.6845 34.2174 23.3333 33.3333 23.3333H20ZM20 36.6666C19.1159 36.6666 18.2681 37.0178 17.643 37.643C17.0178 38.2681 16.6667 39.1159 16.6667 40C16.6667 40.884 17.0178 41.7319 17.643 42.357C18.2681 42.9821 19.1159 43.3333 20 43.3333H33.3333C34.2174 43.3333 35.0652 42.9821 35.6903 42.357C36.3155 41.7319 36.6667 40.884 36.6667 40C36.6667 39.1159 36.3155 38.2681 35.6903 37.643C35.0652 37.0178 34.2174 36.6666 33.3333 36.6666H20ZM16.6667 53.3333C16.6667 52.4493 17.0178 51.6014 17.643 50.9763C18.2681 50.3512 19.1159 50 20 50H33.3333C34.2174 50 35.0652 50.3512 35.6903 50.9763C36.3155 51.6014 36.6667 52.4493 36.6667 53.3333C36.6667 54.2174 36.3155 55.0652 35.6903 55.6903C35.0652 56.3155 34.2174 56.6666 33.3333 56.6666H20C19.1159 56.6666 18.2681 56.3155 17.643 55.6903C17.0178 55.0652 16.6667 54.2174 16.6667 53.3333Z" fill="#FFF"/>
<path fill-rule="evenodd" clip-rule="evenodd" d="M13.3333 10C10.6812 10 8.13762 11.0536 6.26226 12.9289C4.3869 14.8043 3.33333 17.3478 3.33333 20V60C3.33333 62.6522 4.3869 65.1957 6.26226 67.0711C8.13762 68.9464 10.6812 70 13.3333 70H66.6667C69.3188 70 71.8624 68.9464 73.7377 67.0711C75.6131 65.1957 76.6667 62.6522 76.6667 60V20C76.6667 17.3478 75.6131 14.8043 73.7377 12.9289C71.8624 11.0536 69.3188 10 66.6667 10H13.3333ZM66.6667 16.6667H13.3333C12.4493 16.6667 11.6014 17.0179 10.9763 17.643C10.3512 18.2681 9.99999 19.1159 9.99999 20V60C9.99999 60.8841 10.3512 61.7319 10.9763 62.357C11.6014 62.9821 12.4493 63.3333 13.3333 63.3333H66.6667C67.5507 63.3333 68.3986 62.9821 69.0237 62.357C69.6488 61.7319 70 60.8841 70 60V20C70 19.1159 69.6488 18.2681 69.0237 17.643C68.3986 17.0179 67.5507 16.6667 66.6667 16.6667Z" fill="#FFF"/>
</svg>
